<svg width="720" height="720" viewBox="0 0 720 720" fill="none" xmlns="http://www.w3.org/2000/svg">
<path fill-rule="evenodd" clip-rule="evenodd" d="M359.5 720V0H360.5V720H359.5Z" fill="#B684B3" fill-opacity="0.25"/>
<path fill-rule="evenodd" clip-rule="evenodd" d="M328.123 718.586L390.875 1.32568L391.871 1.41284L329.119 718.673L328.123 718.586Z" fill="#B684B3" fill-opacity="0.25"/>
<path fill-rule="evenodd" clip-rule="evenodd" d="M296.997 714.443L422.023 5.38184L423.008 5.55548L297.982 714.617L296.997 714.443Z" fill="#B684B3" fill-opacity="0.25"/>
<path fill-rule="evenodd" clip-rule="evenodd" d="M266.346 707.603L452.695 12.1362L453.661 12.395L267.312 707.862L266.346 707.603Z" fill="#B684B3" fill-opacity="0.25"/>
<path fill-rule="evenodd" clip-rule="evenodd" d="M236.41 698.117L482.664 21.5381L483.604 21.8801L237.349 698.459L236.41 698.117Z" fill="#B684B3" fill-opacity="0.25"/>
<path fill-rule="evenodd" clip-rule="evenodd" d="M207.402 686.057L511.688 33.5151L512.594 33.9378L208.309 686.479L207.402 686.057Z" fill="#B684B3" fill-opacity="0.25"/>
<path fill-rule="evenodd" clip-rule="evenodd" d="M179.57 671.517L539.57 47.9785L540.436 48.4785L180.436 672.017L179.57 671.517Z" fill="#B684B3" fill-opacity="0.25"/>
<path fill-rule="evenodd" clip-rule="evenodd" d="M153.111 654.606L566.086 64.8169L566.905 65.3905L153.93 655.18L153.111 654.606Z" fill="#B684B3" fill-opacity="0.25"/>
<path fill-rule="evenodd" clip-rule="evenodd" d="M128.216 635.455L591.023 83.9033L591.789 84.5461L128.982 636.098L128.216 635.455Z" fill="#B684B3" fill-opacity="0.25"/>
<path fill-rule="evenodd" clip-rule="evenodd" d="M105.094 614.205L614.211 105.088L614.918 105.795L105.801 614.912L105.094 614.205Z" fill="#B684B3" fill-opacity="0.25"/>
<path fill-rule="evenodd" clip-rule="evenodd" d="M83.9089 591.018L635.461 128.211L636.104 128.977L84.5517 591.784L83.9089 591.018Z" fill="#B684B3" fill-opacity="0.25"/>
<path fill-rule="evenodd" clip-rule="evenodd" d="M64.8121 566.075L654.602 153.1L655.175 153.919L65.3857 566.894L64.8121 566.075Z" fill="#B684B3" fill-opacity="0.25"/>
<path fill-rule="evenodd" clip-rule="evenodd" d="M47.9773 539.563L671.516 179.563L672.016 180.429L48.4773 540.429L47.9773 539.563Z" fill="#B684B3" fill-opacity="0.25"/>
<path fill-rule="evenodd" clip-rule="evenodd" d="M33.5131 511.686L686.055 207.4L686.477 208.307L33.9357 512.592L33.5131 511.686Z" fill="#B684B3" fill-opacity="0.25"/>
<path fill-rule="evenodd" clip-rule="evenodd" d="M21.5385 482.654L698.117 236.399L698.459 237.339L21.8806 483.594L21.5385 482.654Z" fill="#B684B3" fill-opacity="0.25"/>
<path fill-rule="evenodd" clip-rule="evenodd" d="M12.135 452.689L707.602 266.339L707.86 267.305L12.3938 453.655L12.135 452.689Z" fill="#B684B3" fill-opacity="0.25"/>
<path fill-rule="evenodd" clip-rule="evenodd" d="M5.38379 422.019L714.445 296.992L714.619 297.977L5.55744 423.004L5.38379 422.019Z" fill="#B684B3" fill-opacity="0.25"/>
<path fill-rule="evenodd" clip-rule="evenodd" d="M1.31801 390.875L718.578 328.123L718.665 329.119L1.40517 391.871L1.31801 390.875Z" fill="#B684B3" fill-opacity="0.25"/>
<path fill-rule="evenodd" clip-rule="evenodd" d="M8.58307e-05 359.496H720V360.496H8.58307e-05V359.496Z" fill="#B684B3" fill-opacity="0.25"/>
<path fill-rule="evenodd" clip-rule="evenodd" d="M21.5385 482.654L698.117 236.399L698.459 237.339L21.8806 483.594L21.5385 482.654Z" fill="#B684B3" fill-opacity="0.25"/>
<path fill-rule="evenodd" clip-rule="evenodd" d="M1.41172 328.127L718.672 390.879L718.585 391.875L1.32456 329.123L1.41172 328.127Z" fill="#B684B3" fill-opacity="0.25"/>
<path fill-rule="evenodd" clip-rule="evenodd" d="M5.55562 296.997L714.617 422.023L714.444 423.008L5.38197 297.982L5.55562 296.997Z" fill="#B684B3" fill-opacity="0.25"/>
<path fill-rule="evenodd" clip-rule="evenodd" d="M12.4006 266.345L707.867 452.695L707.608 453.661L12.1418 267.311L12.4006 266.345Z" fill="#B684B3" fill-opacity="0.25"/>
<path fill-rule="evenodd" clip-rule="evenodd" d="M21.8823 236.407L698.461 482.661L698.119 483.601L21.5402 237.346L21.8823 236.407Z" fill="#B684B3" fill-opacity="0.25"/>
<path fill-rule="evenodd" clip-rule="evenodd" d="M33.935 207.408L686.477 511.693L686.054 512.6L33.5124 208.314L33.935 207.408Z" fill="#B684B3" fill-opacity="0.25"/>
<path fill-rule="evenodd" clip-rule="evenodd" d="M48.4773 179.571L672.016 539.571L671.516 540.437L47.9773 180.437L48.4773 179.571Z" fill="#B684B3" fill-opacity="0.25"/>
<path fill-rule="evenodd" clip-rule="evenodd" d="M65.3902 153.105L655.18 566.081L654.606 566.9L64.8166 153.925L65.3902 153.105Z" fill="#B684B3" fill-opacity="0.25"/>
<path fill-rule="evenodd" clip-rule="evenodd" d="M84.5496 128.216L636.102 591.023L635.459 591.789L83.9068 128.982L84.5496 128.216Z" fill="#B684B3" fill-opacity="0.25"/>
<path fill-rule="evenodd" clip-rule="evenodd" d="M105.797 105.088L614.914 614.205L614.207 614.912L105.09 105.795L105.797 105.088Z" fill="#B684B3" fill-opacity="0.25"/>
<path fill-rule="evenodd" clip-rule="evenodd" d="M128.982 83.9021L591.789 635.454L591.023 636.097L128.216 84.5449L128.982 83.9021Z" fill="#B684B3" fill-opacity="0.25"/>
<path fill-rule="evenodd" clip-rule="evenodd" d="M153.923 64.8182L566.898 654.608L566.079 655.181L153.104 65.3918L153.923 64.8182Z" fill="#B684B3" fill-opacity="0.25"/>
<path fill-rule="evenodd" clip-rule="evenodd" d="M180.43 47.9813L540.43 671.52L539.564 672.02L179.564 48.4813L180.43 47.9813Z" fill="#B684B3" fill-opacity="0.25"/>
<path fill-rule="evenodd" clip-rule="evenodd" d="M208.309 33.5185L512.594 686.06L511.687 686.483L207.402 33.9411L208.309 33.5185Z" fill="#B684B3" fill-opacity="0.25"/>
<path fill-rule="evenodd" clip-rule="evenodd" d="M237.347 21.5415L483.602 698.12L482.662 698.462L236.407 21.8835L237.347 21.5415Z" fill="#B684B3" fill-opacity="0.25"/>
<path fill-rule="evenodd" clip-rule="evenodd" d="M267.314 12.1384L453.664 707.605L452.698 707.864L266.348 12.3973L267.314 12.1384Z" fill="#B684B3" fill-opacity="0.25"/>
<path fill-rule="evenodd" clip-rule="evenodd" d="M297.981 5.38086L423.008 714.442L422.023 714.616L296.996 5.55451L297.981 5.38086Z" fill="#B684B3" fill-opacity="0.25"/>
<path fill-rule="evenodd" clip-rule="evenodd" d="M329.123 1.32534L391.875 718.585L390.879 718.673L328.127 1.41249L329.123 1.32534Z" fill="#B684B3" fill-opacity="0.25"/>
<path fill-rule="evenodd" clip-rule="evenodd" d="M360.5 8.58307e-05L360.5 720L359.5 720L359.5 8.5787e-05L360.5 8.58307e-05Z" fill="#B684B3" fill-opacity="0.25"/>
<path fill-rule="evenodd" clip-rule="evenodd" d="M237.347 21.5415L483.602 698.12L482.662 698.462L236.407 21.8835L237.347 21.5415Z" fill="#B684B3" fill-opacity="0.25"/>
</svg>
