<svg width="720" height="720" fill="none" xmlns="http://www.w3.org/2000/svg"><path fill-rule="evenodd" clip-rule="evenodd" d="M359.5 720V0h1v720h-1Z" fill="#B684B3" fill-opacity=".25"/><path fill-rule="evenodd" clip-rule="evenodd" d="m328.123 718.586 62.752-717.26.996.087-62.752 717.26-.996-.087Z" fill="#B684B3" fill-opacity=".25"/><path fill-rule="evenodd" clip-rule="evenodd" d="M296.997 714.443 422.023 5.382l.985.173-125.026 709.062-.985-.174Z" fill="#B684B3" fill-opacity=".25"/><path fill-rule="evenodd" clip-rule="evenodd" d="M266.346 707.603 452.695 12.136l.966.259-186.349 695.467-.966-.259Z" fill="#B684B3" fill-opacity=".25"/><path fill-rule="evenodd" clip-rule="evenodd" d="M236.41 698.117 482.664 21.538l.94.342-246.255 676.58-.939-.342Z" fill="#B684B3" fill-opacity=".25"/><path fill-rule="evenodd" clip-rule="evenodd" d="M207.402 686.057 511.688 33.515l.906.423-304.285 652.541-.907-.422Z" fill="#B684B3" fill-opacity=".25"/><path fill-rule="evenodd" clip-rule="evenodd" d="m179.57 671.517 360-623.539.866.5-360 623.539-.866-.5Z" fill="#B684B3" fill-opacity=".25"/><path fill-rule="evenodd" clip-rule="evenodd" d="m153.111 654.606 412.975-589.79.819.575L153.93 655.18l-.819-.574Z" fill="#B684B3" fill-opacity=".25"/><path fill-rule="evenodd" clip-rule="evenodd" d="M128.216 635.455 591.023 83.903l.766.643-462.807 551.552-.766-.643Z" fill="#B684B3" fill-opacity=".25"/><path fill-rule="evenodd" clip-rule="evenodd" d="m105.094 614.205 509.117-509.117.707.707-509.117 509.117-.707-.707Z" fill="#B684B3" fill-opacity=".25"/><path fill-rule="evenodd" clip-rule="evenodd" d="M83.909 591.018 635.46 128.211l.643.766L84.552 591.784l-.643-.766Z" fill="#B684B3" fill-opacity=".25"/><path fill-rule="evenodd" clip-rule="evenodd" d="M64.812 566.075 654.602 153.1l.573.819-589.79 412.975-.573-.819Z" fill="#B684B3" fill-opacity=".25"/><path fill-rule="evenodd" clip-rule="evenodd" d="m47.977 539.563 623.539-360 .5.866-623.539 360-.5-.866Z" fill="#B684B3" fill-opacity=".25"/><path fill-rule="evenodd" clip-rule="evenodd" d="M33.513 511.686 686.055 207.4l.422.907L33.936 512.592l-.423-.906Z" fill="#B684B3" fill-opacity=".25"/><path fill-rule="evenodd" clip-rule="evenodd" d="m21.538 482.654 676.579-246.255.342.94L21.881 483.594l-.343-.94Z" fill="#B684B3" fill-opacity=".25"/><path fill-rule="evenodd" clip-rule="evenodd" d="m12.135 452.689 695.467-186.35.258.966-695.466 186.35-.259-.966Z" fill="#B684B3" fill-opacity=".25"/><path fill-rule="evenodd" clip-rule="evenodd" d="m5.384 422.019 709.061-125.027.174.985L5.557 423.004l-.173-.985Z" fill="#B684B3" fill-opacity=".25"/><path fill-rule="evenodd" clip-rule="evenodd" d="m1.318 390.875 717.26-62.752.087.996-717.26 62.752-.087-.996Z" fill="#B684B3" fill-opacity=".25"/><path fill-rule="evenodd" clip-rule="evenodd" d="M0 359.496h720v1H0v-1Z" fill="#B684B3" fill-opacity=".25"/><path fill-rule="evenodd" clip-rule="evenodd" d="m21.538 482.654 676.579-246.255.342.94L21.881 483.594l-.343-.94Z" fill="#B684B3" fill-opacity=".25"/><path fill-rule="evenodd" clip-rule="evenodd" d="m1.412 328.127 717.26 62.752-.087.996-717.26-62.752.087-.996Z" fill="#B684B3" fill-opacity=".25"/><path fill-rule="evenodd" clip-rule="evenodd" d="m5.556 296.997 709.061 125.026-.173.985L5.382 297.982l.174-.985Z" fill="#B684B3" fill-opacity=".25"/><path fill-rule="evenodd" clip-rule="evenodd" d="m12.4 266.345 695.467 186.35-.259.966-695.466-186.35.259-.966Z" fill="#B684B3" fill-opacity=".25"/><path fill-rule="evenodd" clip-rule="evenodd" d="m21.882 236.407 676.579 246.254-.342.94L21.54 237.346l.342-.939Z" fill="#B684B3" fill-opacity=".25"/><path fill-rule="evenodd" clip-rule="evenodd" d="m33.935 207.408 652.542 304.285-.423.907L33.512 208.314l.423-.906Z" fill="#B684B3" fill-opacity=".25"/><path fill-rule="evenodd" clip-rule="evenodd" d="m48.477 179.571 623.539 360-.5.866-623.539-360 .5-.866Z" fill="#B684B3" fill-opacity=".25"/><path fill-rule="evenodd" clip-rule="evenodd" d="m65.39 153.105 589.79 412.976-.574.819-589.79-412.975.574-.82Z" fill="#B684B3" fill-opacity=".25"/><path fill-rule="evenodd" clip-rule="evenodd" d="m84.55 128.216 551.552 462.807-.643.766L83.907 128.982l.643-.766Z" fill="#B684B3" fill-opacity=".25"/><path fill-rule="evenodd" clip-rule="evenodd" d="m105.797 105.088 509.117 509.117-.707.707L105.09 105.795l.707-.707Z" fill="#B684B3" fill-opacity=".25"/><path fill-rule="evenodd" clip-rule="evenodd" d="m128.982 83.902 462.807 551.552-.766.643L128.216 84.545l.766-.643Z" fill="#B684B3" fill-opacity=".25"/><path fill-rule="evenodd" clip-rule="evenodd" d="m153.923 64.818 412.975 589.79-.819.573-412.975-589.79.819-.573Z" fill="#B684B3" fill-opacity=".25"/><path fill-rule="evenodd" clip-rule="evenodd" d="m180.43 47.981 360 623.539-.866.5-360-623.539.866-.5Z" fill="#B684B3" fill-opacity=".25"/><path fill-rule="evenodd" clip-rule="evenodd" d="M208.309 33.519 512.594 686.06l-.907.423L207.402 33.941l.907-.422Z" fill="#B684B3" fill-opacity=".25"/><path fill-rule="evenodd" clip-rule="evenodd" d="M237.347 21.541 483.602 698.12l-.94.342L236.407 21.884l.94-.343Z" fill="#B684B3" fill-opacity=".25"/><path fill-rule="evenodd" clip-rule="evenodd" d="m267.314 12.138 186.35 695.467-.966.259-186.35-695.467.966-.259Z" fill="#B684B3" fill-opacity=".25"/><path fill-rule="evenodd" clip-rule="evenodd" d="m297.981 5.38 125.027 709.062-.985.174L296.996 5.555l.985-.174Z" fill="#B684B3" fill-opacity=".25"/><path fill-rule="evenodd" clip-rule="evenodd" d="m329.123 1.325 62.752 717.26-.996.088-62.752-717.26.996-.088Z" fill="#B684B3" fill-opacity=".25"/><path fill-rule="evenodd" clip-rule="evenodd" d="M360.5 0v720h-1V0h1Z" fill="#B684B3" fill-opacity=".25"/><path fill-rule="evenodd" clip-rule="evenodd" d="M237.347 21.541 483.602 698.12l-.94.342L236.407 21.884l.94-.343Z" fill="#B684B3" fill-opacity=".25"/></svg>